<svg width="171" height="221" viewBox="0 0 171 221" fill="none" xmlns="http://www.w3.org/2000/svg">
<path d="M85.3738 0C126.732 0 164.414 76.1626 168.433 129.105C172.696 185.27 133.075 221 85.3738 221C37.6728 221 -1.94883 185.27 2.31492 129.105C6.33436 76.1626 44.0153 0 85.3738 0Z" fill="#F4E9D3"/>
<path d="M85.3736 212.98C41.2289 212.98 4.00936 182.375 2.08338 133.297C0.0551017 187.039 38.8712 221 85.3736 221C131.876 221 170.692 187.039 168.664 133.297C166.738 182.376 129.518 212.98 85.3736 212.98Z" fill="#E5D6BE"/>
<g filter="url(#filter0_dii)">
<path d="M125.884 167.705C148.271 145.317 148.25 108.998 125.836 86.5839C103.423 64.1701 67.1036 64.1489 44.7158 86.5368C22.3279 108.925 22.349 145.244 44.7629 167.658C67.1768 190.071 103.496 190.093 125.884 167.705Z" fill="#FAE59F"/>
</g>
<defs>
<filter id="filter0_dii" x="0.178955" y="44" width="170.241" height="170.242" filterUnits="userSpaceOnUse" color-interpolation-filters="sRGB">
<feFlood flood-opacity="0" result="BackgroundImageFix"/>
<feColorMatrix in="SourceAlpha" type="matrix" values="0 0 0 0 0 0 0 0 0 0 0 0 0 0 0 0 0 0 127 0"/>
<feOffset dy="2"/>
<feGaussianBlur stdDeviation="2"/>
<feColorMatrix type="matrix" values="0 0 0 0 0.741176 0 0 0 0 0.639216 0 0 0 0 0.333333 0 0 0 1 0"/>
<feBlend mode="normal" in2="BackgroundImageFix" result="effect1_dropShadow"/>
<feBlend mode="normal" in="SourceGraphic" in2="effect1_dropShadow" result="shape"/>
<feColorMatrix in="SourceAlpha" type="matrix" values="0 0 0 0 0 0 0 0 0 0 0 0 0 0 0 0 0 0 127 0" result="hardAlpha"/>
<feOffset/>
<feGaussianBlur stdDeviation="5"/>
<feComposite in2="hardAlpha" operator="arithmetic" k2="-1" k3="1"/>
<feColorMatrix type="matrix" values="0 0 0 0 1 0 0 0 0 1 0 0 0 0 1 0 0 0 1 0"/>
<feBlend mode="normal" in2="shape" result="effect2_innerShadow"/>
<feColorMatrix in="SourceAlpha" type="matrix" values="0 0 0 0 0 0 0 0 0 0 0 0 0 0 0 0 0 0 127 0" result="hardAlpha"/>
<feOffset dy="-1"/>
<feGaussianBlur stdDeviation="2.5"/>
<feComposite in2="hardAlpha" operator="arithmetic" k2="-1" k3="1"/>
<feColorMatrix type="matrix" values="0 0 0 0 0 0 0 0 0 0 0 0 0 0 0 0 0 0 0.25 0"/>
<feBlend mode="normal" in2="effect2_innerShadow" result="effect3_innerShadow"/>
</filter>
</defs>
</svg>
