<svg width="167" height="221" viewBox="0 0 167 221" fill="none" xmlns="http://www.w3.org/2000/svg">
<path d="M83.3738 0C124.732 0 162.414 76.1626 166.433 129.105C170.696 185.27 131.075 221 83.3738 221C35.6728 221 -3.94883 185.27 0.31492 129.105C4.33436 76.1626 42.0153 0 83.3738 0Z" fill="#F4E9D3"/>
<path d="M83.3736 212.98C39.2289 212.98 2.00936 182.375 0.0833808 133.297C-1.9449 187.039 36.8712 221 83.3736 221C129.876 221 168.692 187.039 166.664 133.297C164.738 182.376 127.518 212.98 83.3736 212.98Z" fill="#E5D6BE"/>
<g filter="url(#filter0_diii)">
<path d="M121.754 168.502C143.202 147.054 143.202 112.281 121.754 90.834C100.307 69.3866 65.5338 69.3866 44.0864 90.834C22.639 112.281 22.639 147.054 44.0864 168.502C65.5338 189.949 100.307 189.949 121.754 168.502Z" fill="#F3B62D"/>
</g>
<defs>
<filter id="filter0_diii" x="1.25244" y="48" width="164.336" height="169.336" filterUnits="userSpaceOnUse" color-interpolation-filters="sRGB">
<feFlood flood-opacity="0" result="BackgroundImageFix"/>
<feColorMatrix in="SourceAlpha" type="matrix" values="0 0 0 0 0 0 0 0 0 0 0 0 0 0 0 0 0 0 127 0"/>
<feOffset/>
<feGaussianBlur stdDeviation="2"/>
<feColorMatrix type="matrix" values="0 0 0 0 1 0 0 0 0 0.598086 0 0 0 0 0 0 0 0 1 0"/>
<feBlend mode="normal" in2="BackgroundImageFix" result="effect1_dropShadow"/>
<feBlend mode="normal" in="SourceGraphic" in2="effect1_dropShadow" result="shape"/>
<feColorMatrix in="SourceAlpha" type="matrix" values="0 0 0 0 0 0 0 0 0 0 0 0 0 0 0 0 0 0 127 0" result="hardAlpha"/>
<feOffset dx="5" dy="10"/>
<feGaussianBlur stdDeviation="10"/>
<feComposite in2="hardAlpha" operator="arithmetic" k2="-1" k3="1"/>
<feColorMatrix type="matrix" values="0 0 0 0 1 0 0 0 0 0.909347 0 0 0 0 0.616667 0 0 0 1 0"/>
<feBlend mode="normal" in2="shape" result="effect2_innerShadow"/>
<feColorMatrix in="SourceAlpha" type="matrix" values="0 0 0 0 0 0 0 0 0 0 0 0 0 0 0 0 0 0 127 0" result="hardAlpha"/>
<feOffset dy="-4"/>
<feGaussianBlur stdDeviation="5"/>
<feComposite in2="hardAlpha" operator="arithmetic" k2="-1" k3="1"/>
<feColorMatrix type="matrix" values="0 0 0 0 1 0 0 0 0 0.589286 0 0 0 0 0 0 0 0 1 0"/>
<feBlend mode="normal" in2="effect2_innerShadow" result="effect3_innerShadow"/>
<feColorMatrix in="SourceAlpha" type="matrix" values="0 0 0 0 0 0 0 0 0 0 0 0 0 0 0 0 0 0 127 0" result="hardAlpha"/>
<feOffset/>
<feGaussianBlur stdDeviation="1"/>
<feComposite in2="hardAlpha" operator="arithmetic" k2="-1" k3="1"/>
<feColorMatrix type="matrix" values="0 0 0 0 0.980392 0 0 0 0 0.752941 0 0 0 0 0.301961 0 0 0 1 0"/>
<feBlend mode="normal" in2="effect3_innerShadow" result="effect4_innerShadow"/>
</filter>
</defs>
</svg>
