<svg width="197" height="237" viewBox="0 0 197 237" fill="none" xmlns="http://www.w3.org/2000/svg">
<path d="M93.3738 0C134.732 0 172.414 76.1626 176.433 129.105C180.696 185.27 141.075 221 93.3738 221C45.6728 221 6.05117 185.27 10.3149 129.105C14.3344 76.1626 52.0153 0 93.3738 0Z" fill="#F4E9D3"/>
<path d="M93.3736 212.98C49.2289 212.98 12.0094 182.375 10.0834 133.297C8.0551 187.039 46.8712 221 93.3736 221C139.876 221 178.692 187.039 176.664 133.297C174.738 182.376 137.518 212.98 93.3736 212.98Z" fill="#E5D6BE"/>
<g filter="url(#filter0_diii)">
<path d="M132.441 172.441C154.061 150.821 154.061 115.767 132.441 94.1471C110.821 72.5268 75.7674 72.5268 54.147 94.1471C32.5267 115.767 32.5267 150.821 54.1471 172.441C75.7674 194.062 110.821 194.062 132.441 172.441Z" fill="#F25601"/>
</g>
<defs>
<filter id="filter0_diii" x="0" y="40" width="196.588" height="196.588" filterUnits="userSpaceOnUse" color-interpolation-filters="sRGB">
<feFlood flood-opacity="0" result="BackgroundImageFix"/>
<feColorMatrix in="SourceAlpha" type="matrix" values="0 0 0 0 0 0 0 0 0 0 0 0 0 0 0 0 0 0 127 0"/>
<feOffset dx="5" dy="5"/>
<feGaussianBlur stdDeviation="10"/>
<feColorMatrix type="matrix" values="0 0 0 0 1 0 0 0 0 0.762887 0 0 0 0 0 0 0 0 0.25 0"/>
<feBlend mode="normal" in2="BackgroundImageFix" result="effect1_dropShadow"/>
<feBlend mode="normal" in="SourceGraphic" in2="effect1_dropShadow" result="shape"/>
<feColorMatrix in="SourceAlpha" type="matrix" values="0 0 0 0 0 0 0 0 0 0 0 0 0 0 0 0 0 0 127 0" result="hardAlpha"/>
<feOffset/>
<feGaussianBlur stdDeviation="10"/>
<feComposite in2="hardAlpha" operator="arithmetic" k2="-1" k3="1"/>
<feColorMatrix type="matrix" values="0 0 0 0 1 0 0 0 0 0.72 0 0 0 0 0.3 0 0 0 1 0"/>
<feBlend mode="normal" in2="shape" result="effect2_innerShadow"/>
<feColorMatrix in="SourceAlpha" type="matrix" values="0 0 0 0 0 0 0 0 0 0 0 0 0 0 0 0 0 0 127 0" result="hardAlpha"/>
<feOffset/>
<feGaussianBlur stdDeviation="5"/>
<feComposite in2="hardAlpha" operator="arithmetic" k2="-1" k3="1"/>
<feColorMatrix type="matrix" values="0 0 0 0 1 0 0 0 0 0.48 0 0 0 0 0 0 0 0 1 0"/>
<feBlend mode="normal" in2="effect2_innerShadow" result="effect3_innerShadow"/>
<feColorMatrix in="SourceAlpha" type="matrix" values="0 0 0 0 0 0 0 0 0 0 0 0 0 0 0 0 0 0 127 0" result="hardAlpha"/>
<feOffset dy="4"/>
<feGaussianBlur stdDeviation="5"/>
<feComposite in2="hardAlpha" operator="arithmetic" k2="-1" k3="1"/>
<feColorMatrix type="matrix" values="0 0 0 0 1 0 0 0 0 0.36 0 0 0 0 0 0 0 0 1 0"/>
<feBlend mode="normal" in2="effect3_innerShadow" result="effect4_innerShadow"/>
</filter>
</defs>
</svg>
