<svg width="1091" height="1446" viewBox="0 0 1091 1446" fill="none" xmlns="http://www.w3.org/2000/svg">
<path d="M545.374 0.370605C815.913 0.370605 1062.4 498.573 1088.69 844.886C1116.58 1212.28 857.401 1446 545.374 1446C233.347 1446 -25.8305 1212.28 2.05999 844.886C28.3524 498.573 274.835 0.370605 545.374 0.370605Z" fill="#F4E9D3"/>
<path d="M545.373 1393.54C256.609 1393.54 13.1446 1193.34 0.546216 872.305C-12.7214 1223.85 241.187 1446 545.373 1446C849.56 1446 1103.47 1223.85 1090.2 872.305C1077.6 1193.35 834.138 1393.54 545.373 1393.54Z" fill="#E5D6BE"/>
<path d="M796.432 1102.59C936.726 962.299 936.726 734.838 796.432 594.544C656.138 454.25 428.677 454.25 288.383 594.544C148.089 734.838 148.089 962.299 288.383 1102.59C428.677 1242.89 656.138 1242.89 796.432 1102.59Z" fill="#F3B62D"/>
</svg>
