<svg version="1" xmlns="http://www.w3.org/2000/svg" width="1928" height="1928" viewBox="0 0 1446.000000 1446.000000"><path d="M704 1.2c-39.4 3.9-76.7 16.5-114.5 38.6-10 5.9-27.3 16.9-28.5 18.2-.3.3-3.6 2.8-7.5 5.5-3.8 2.7-7.2 5.1-7.5 5.4-.3.3-4 3.5-8.4 7-4.3 3.5-8.8 7.2-10 8.2-1.1 1-3.2 2.7-4.6 3.9-19.8 17-56 53.9-67.1 68.5-1.3 1.6-3 3.7-3.9 4.5-1.9 1.8-21.3 26.4-29.7 37.5-11.3 15.1-32.3 45.8-44 64.5-10.6 16.8-32.3 53.5-32.3 54.5 0 .2-1.5 3-3.4 6.2-10.7 18.6-39.2 75.6-47.2 94.6-1.4 3.2-3.8 8.7-5.4 12.2-1.6 3.6-6.4 14.7-10.5 24.7-4.2 10.1-8.5 20.2-9.5 22.6-1.1 2.3-2 4.8-2 5.5-.1.6-.9 3-2 5.2s-1.9 4.7-2 5.5c0 .9-.4 2-.9 2.5-2.4 2.7-24.1 66-35 102-8.9 29.6-15.9 56.3-25 95.5-4.3 18.7-11.8 58.5-14.6 78-.2 1.4-.6 4.2-.9 6.2-.8 4.9-1.3 9.1-2.1 15.3-.4 2.7-.8 6.1-1.1 7.5-.2 1.4-.6 5.4-.9 9-.4 3.6-.8 7.2-1 8-.2.8-.7 5.1-1 9.5-.3 4.4-.8 10-1 12.5-3.2 32.9-2.6 99.4 1 128 .2 1.9.7 6 1 9 2.3 20.9 9 54.9 16.1 82 11.5 43.9 34.3 97.9 57.2 135 9 14.8 23.3 35.9 28.9 43 .6.8 4.2 5.3 7.9 10 45.6 57.8 105.2 106 172.4 139.5 29.4 14.7 65.2 28.9 89.5 35.5 3.9 1 11.1 3 16 4.4 24.8 7.1 67 14.5 97 17.2 3.9.3 8.4.8 10 1.1 5.6.8 74.9 1.1 85 .3 16.6-1.3 24.9-2 27.5-2.5 1.4-.2 5.2-.7 8.5-1 3.3-.3 6.7-.8 7.5-1 .8-.2 3.8-.7 6.5-1 14.9-1.7 46.6-8.4 69.5-14.7 28.6-7.8 62.2-20.2 86.8-31.9 6.7-3.3 12.4-5.9 12.6-5.9.3 0 12.8-6.8 22.1-11.9 2.8-1.6 16.7-9.8 21-12.4 31.4-19.3 65.5-46.6 93.5-74.8 62.4-62.9 108.3-144.6 131.5-234.4 5.9-22.7 11.3-50.1 13.9-70.5 3.9-30.5 5-48 5.1-82 0-23.7-.7-45-2-58-.2-1.9-.6-6.9-1-11-.3-4.1-.8-9.1-1-11-.2-1.9-.7-6-1-9-1.4-13.1-6.2-47.4-8-57.3-.3-1.5-1-5.4-1.5-8.7-1.7-9.4-2-11.1-3.5-18.5-.7-3.9-1.7-8.8-2.1-11-.4-2.2-.8-4.5-1-5-.1-.6-1.4-6.4-2.8-13-3.9-17.5-9.3-40-12.5-52-1-3.9-3.3-12.4-5.1-18.9-1.7-6.6-3.7-13.8-4.4-16-.8-2.3-2.3-7.5-3.5-11.6-3-10.4-22.2-69.2-23.2-71-.5-.8-2.2-5.3-3.8-10-1.6-4.7-3.3-9.6-3.9-11-.6-1.4-2.5-6.3-4.2-11-8.9-23.5-26.6-66.1-34.1-81.7-2.1-4.5-3.9-8.4-3.9-8.7 0-2.1-32.5-66.4-43.3-85.6-8.7-15.5-15.5-27.3-18.3-31.8-1.9-2.9-3.4-5.5-3.4-5.8 0-.2-5.7-9.5-12.6-20.5-20.9-33.1-47.8-70.7-68.4-95.4-4.1-5-8.1-9.9-9-10.9-3.6-4.6-22-24.8-29.5-32.6-19.9-20.4-36.2-35.3-53.9-49.3-6.1-4.9-11.8-9.4-12.6-10-4.4-3.5-22-15.3-32.3-21.6-26.6-16.2-63-31.7-84.7-36.1-2.5-.5-5.6-1.2-7-1.5-19.2-4.4-47.9-6.2-67-4.3z"/></svg>